<?xml version="1.0" encoding="UTF-8"?>
<svg width="671px" height="101px" viewBox="0 0 671 101" version="1.1" xmlns="http://www.w3.org/2000/svg" xmlns:xlink="http://www.w3.org/1999/xlink">
    <!-- Generator: Sketch 55.2 (78181) - https://sketchapp.com -->
    <title>Artboard</title>
    <desc>Created with Sketch.</desc>
    <g id="Artboard" stroke="none" stroke-width="1" fill="none" fill-rule="evenodd">
        <path d="M69.12,47.4 C70.3466728,47.4 70.96,48.1733256 70.96,49.72 C70.96,51.3733416 70.29334,52.9199928 68.96,54.36 C66.6133216,56.9733464 64.4533432,60.2533136 62.48,64.2 C59.4933184,70.1733632 58,75.559976 58,80.36 C58,82.226676 58.33333,83.5866624 59,84.44 C59.66667,85.2933376 60.4266624,85.72 61.28,85.72 C63.8400128,85.72 66.8266496,83.6400208 70.24,79.48 C73.2800152,75.5866472 75.599992,71.8000184 77.2,68.12 C77.6266688,67.2666624 78.0533312,66.8933328 78.48,67 C78.9066688,67.1066672 78.9333352,67.5866624 78.56,68.44 C76.3733224,73.2933576 73.8933472,77.5599816 71.12,81.24 C69.6799928,83.2133432 67.893344,84.8533268 65.76,86.16 C63.626656,87.4666732 61.5066772,88.12 59.4,88.12 C57.2933228,88.12 55.706672,87.2800084 54.64,85.6 C53.573328,83.9199916 53.04,81.9333448 53.04,79.64 C53.04,77.3466552 53.3199972,75.0800112 53.88,72.84 C54.44,70.5999888 55.1733288,68.8666728 56.08,67.64 C50.6933064,74.0933656 44.9600304,79.2666472 38.88,83.16 C35.679984,85.1333432 32.1333528,86.3066648 28.24,86.68 C27.8666648,86.7333336 27.2400044,86.76 26.36,86.76 C25.4799956,86.76 24.4266728,86.4400032 23.2,85.8 C19.3599808,84.199992 17.44,80.2933644 17.44,74.08 C17.44,67.8666356 19.4666464,61.1333696 23.52,53.88 C25.653344,50.0399808 27.9999872,46.653348 30.56,43.72 C26.9866488,42.0133248 24.3200088,40.1733432 22.56,38.2 C21.2799936,36.7599928 20.64,35.0266768 20.64,33 C20.64,30.9733232 21.039996,29.693336 21.84,29.16 C22.373336,28.4666632 22.8533312,28.3333312 23.28,28.76 C23.6000016,29.2400024 23.6133348,29.8266632 23.32,30.52 C23.0266652,31.2133368 22.88,31.8799968 22.88,32.52 C22.88,33.9600072 23.6533256,35.5599912 25.2,37.32 C26.7466744,39.0800088 29.0133184,40.6533264 32,42.04 C44.533396,28.1199304 57.5465992,21.16 71.04,21.16 C75.2533544,21.16 78.5999876,22.1066572 81.08,24 C83.5600124,25.8933428 84.8,28.3333184 84.8,31.32 C84.8,34.5733496 82.9866848,37.7199848 79.36,40.76 C77.5466576,42.360008 74.9600168,43.7466608 71.6,44.92 C66.4799744,46.7333424 60.386702,47.64 53.32,47.64 C46.253298,47.64 40.4000232,46.8933408 35.76,45.4 C30.3733064,53.0267048 26.6666768,59.3599748 24.64,64.4 C22.6133232,69.4400252 21.6,73.3466528 21.6,76.12 C21.6,76.7066696 21.6266664,77.2399976 21.68,77.72 C22.3200032,82.1466888 24.5599808,84.36 28.4,84.36 C32.7200216,84.36 37.7333048,82.0133568 43.44,77.32 C47.4933536,73.9066496 51.4666472,69.8533568 55.36,65.16 C59.2533528,60.4666432 62.1466572,56.3333512 64.04,52.76 C65.9333428,49.1866488 67.6266592,47.4 69.12,47.4 Z M81.52,30.36 C81.52,28.0666552 80.5733428,26.3066728 78.68,25.08 C76.7866572,23.8533272 74.1866832,23.24 70.88,23.24 C67.5733168,23.24 64.2800164,23.773328 61,24.84 C57.7199836,25.906672 54.6533476,27.4799896 51.8,29.56 C48.9466524,31.6400104 46.4133444,33.7733224 44.2,35.96 C41.9866556,38.1466776 39.6000128,40.7599848 37.04,43.8 C41.04002,45.0800064 45.9466376,45.72 51.76,45.72 C62.693388,45.72 70.6666416,43.9600176 75.68,40.44 C79.5733528,37.7199864 81.52,34.36002 81.52,30.36 Z M74.72,78.36 C74.72,76.0666552 75.7066568,73.2933496 77.68,70.04 C76.8266624,70.04 76.5866648,69.6133376 76.96,68.76 L78.4,65.96 C80.2133424,62.493316 81.7066608,59.560012 82.88,57.16 C83.413336,56.0399944 84.4533256,55.48 86,55.48 L90.88,55.48 C88.9599904,56.8666736 87.0266764,59.5466468 85.08,63.52 C83.1333236,67.4933532 81.626672,70.613322 80.56,72.88 C79.493328,75.146678 78.96,76.8666608 78.96,78.04 C78.96,79.2133392 79.159998,80.0399976 79.56,80.52 C79.960002,81.0000024 80.5066632,81.24 81.2,81.24 C82.2133384,81.24 83.6266576,80.173344 85.44,78.04 C88.2666808,74.7333168 92.2399744,67.7733864 97.36,57.16 C97.9466696,56.0399944 98.9866592,55.48 100.48,55.48 L104.8,55.48 C103.626661,56.3866712 102.70667,57.3199952 102.04,58.28 C101.37333,59.2400048 100.453339,60.9466544 99.28,63.4 C96.079984,69.800032 94.2933352,74.0399896 93.92,76.12 C93.7599992,76.8666704 93.68,77.5599968 93.68,78.2 C93.68,79.9066752 94.2666608,80.8133328 95.44,80.92 C98.3200144,80.92 101.866646,76.4667112 106.08,67.56 C106.400002,66.8133296 106.72,66.5199992 107.04,66.68 C107.360002,66.8400008 107.52,67.053332 107.52,67.32 C107.52,67.586668 107.280002,68.1999952 106.8,69.16 L105.4,71.96 C104.946664,72.8666712 104.253338,74.1066588 103.32,75.68 C102.386662,77.2533412 101.520004,78.4933288 100.72,79.4 C98.6399896,81.7466784 96.60001,82.92 94.6,82.92 C92.59999,82.92 91.2266704,82.0400088 90.48,80.28 C90.1599984,79.48 90,78.4666728 90,77.24 C90,76.0133272 90.266664,74.4933424 90.8,72.68 C86.9066472,79.5067008 83.3066832,82.92 80,82.92 C77.1199856,82.92 75.4400024,81.720012 74.96,79.32 C74.7999992,79.053332 74.72,78.7333352 74.72,78.36 Z M116.88,50.92 C116.88,53.320012 115.360015,55.586656 112.32,57.72 C113.386672,57.7733336 114.813324,57.8 116.6,57.8 C118.386676,57.8 120.639986,57.666668 123.36,57.4 C123.466667,57.5600008 123.52,57.9866632 123.52,58.68 C123.52,59.3733368 123.200003,60.3999932 122.56,61.76 C121.919997,63.1200068 121.346669,64.2933284 120.84,65.28 C120.333331,66.2666716 119.853336,67.1999956 119.4,68.08 C118.946664,68.9600044 118.440003,70.0399936 117.88,71.32 C117.319997,72.6000064 116.853335,73.773328 116.48,74.84 C115.14666,78.8933536 115.36,80.92 117.12,80.92 C119.360011,80.92 122.666645,76.4667112 127.04,67.56 C127.413335,66.8666632 127.719999,66.5999992 127.96,66.76 C128.200001,66.9200008 128.32,67.1199988 128.32,67.36 C128.32,67.6000012 127.973337,68.4266596 127.28,69.84 C126.586663,71.2533404 125.840004,72.7066592 125.04,74.2 C124.239996,75.6933408 122.986675,77.4266568 121.28,79.4 C119.253323,81.8533456 117.306676,83.08 115.44,83.08 C113.35999,83.08 111.920004,81.8266792 111.12,79.32 C110.959999,78.8399976 110.88,78.1200048 110.88,77.16 C110.88,76.1999952 111.186664,74.920008 111.8,73.32 C112.413336,71.719992 113.38666,69.7733448 114.72,67.48 C116.05334,65.1866552 116.799999,63.840002 116.96,63.44 C117.120001,63.039998 117.2,62.6533352 117.2,62.28 C117.2,60.6266584 115.066688,59.7466672 110.8,59.64 L109.84,62.2 C106.479983,71.000044 103.253349,76.8933184 100.16,79.88 C99.626664,80.3600024 99.36,80.200004 99.36,79.4 C99.36,79.2399992 99.4133328,79.0533344 99.52,78.84 C102.506682,74.8933136 105.093322,70.2266936 107.28,64.84 C109.466678,59.4533064 110.986662,54.3333576 111.84,49.48 C112.160002,47.8266584 112.906661,47 114.08,47 C115.253339,47 116.106664,47.7466592 116.64,49.24 C116.800001,49.7200024 116.88,50.2799968 116.88,50.92 Z M130.4,70.68 C129.65333,72.4933424 129.28,74.5199888 129.28,76.76 C129.28,78.2533408 129.61333,79.4399956 130.28,80.32 C130.94667,81.2000044 131.893327,81.64 133.12,81.64 C137.973358,81.64 142.373314,77.0800456 146.32,67.96 C146.693335,67.1066624 147.146664,66.7333328 147.68,66.84 C148.000002,67.0000008 148.026668,67.3999968 147.76,68.04 C145.519989,72.8933576 143.786673,76.119992 142.56,77.72 C139.839986,81.453352 136.48002,83.32 132.48,83.32 C130.346656,83.32 128.533341,82.6266736 127.04,81.24 C125.546659,79.8533264 124.8,77.960012 124.8,75.56 C124.8,73.159988 125.373328,70.6133468 126.52,67.92 C127.666672,65.2266532 129.226657,62.7200116 131.2,60.4 C133.173343,58.0799884 135.439987,56.386672 138,55.32 C139.226673,54.786664 140.399994,54.52 141.52,54.52 C142.640006,54.52 143.679995,54.8399968 144.64,55.48 C145.546671,56.2266704 146,57.0533288 146,57.96 C146,61.160016 144.080019,64.226652 140.24,67.16 C139.066661,68.0666712 137.413344,68.8799964 135.28,69.6 C133.146656,70.3200036 131.520006,70.68 130.4,70.68 Z M143.84,57.88 C143.84,56.813328 143.413338,56.28 142.56,56.28 C141.066659,56.28 138.800015,58.1199816 135.76,61.8 C133.946658,64.0400112 132.346674,66.5466528 130.96,69.32 C131.866671,69.32 133.186658,69.0000032 134.92,68.36 C136.653342,67.7199968 138.159994,66.866672 139.44,65.8 C142.373348,63.2933208 143.84,60.6533472 143.84,57.88 Z M138.96,51.48 C138.906666,51.48 138.813334,51.4400004 138.68,51.36 C138.546666,51.2799996 138.48,51.1466676 138.48,50.96 C138.48,50.7733324 138.533333,50.6000008 138.64,50.44 C138.746667,50.2799992 139.50666,49.666672 140.92,48.6 C142.33334,47.533328 143.866658,46.4266724 145.52,45.28 C147.173342,44.1333276 148.37333,43.2800028 149.12,42.72 C149.86667,42.1599972 150.599996,41.88 151.32,41.88 C152.040004,41.88 152.679997,42.013332 153.24,42.28 C153.800003,42.546668 154.08,42.88 154.08,43.28 C154.08,43.680002 154.000001,44.0399984 153.84,44.36 C153.573332,45.0000032 151.173356,46.3466564 146.64,48.4 C142.106644,50.4533436 139.54667,51.48 138.96,51.48 Z M150.96,67.56 C150.906666,67.7733344 150.666669,68.5066604 150.24,69.76 C149.813331,71.0133396 149.453335,72.2133276 149.16,73.36 C148.866665,74.5066724 148.72,75.6533276 148.72,76.8 C148.72,77.9466724 148.986664,79.0133284 149.52,80 C150.053336,80.9866716 150.906661,81.48 152.08,81.48 C154.00001,81.48 155.866658,80.1866796 157.68,77.6 C159.493342,75.0133204 161.413323,71.72002 163.44,67.72 C163.866669,66.9733296 164.266665,66.6799992 164.64,66.84 C164.906668,67.0533344 164.960001,67.3333316 164.8,67.68 C164.639999,68.0266684 164.306669,68.7733276 163.8,69.92 C163.293331,71.0666724 162.920001,71.8666644 162.68,72.32 C162.439999,72.7733356 162.013336,73.5733276 161.4,74.72 C160.786664,75.8666724 160.253336,76.7199972 159.8,77.28 C159.346664,77.84 158.733337,78.5599956 157.96,79.44 C157.186663,80.3200044 156.453337,80.9733312 155.76,81.4 C153.893324,82.5733392 152.133342,83.16 150.48,83.16 C148.826658,83.16 147.546671,82.8000036 146.64,82.08 C145.733329,81.3599964 145.186668,80.5866708 145,79.76 C144.813332,78.9333292 144.72,78.2000032 144.72,77.56 C144.72,76.9199968 144.746666,76.0933384 144.8,75.08 C144.960001,73.3733248 145.293331,71.720008 145.8,70.12 C146.306669,68.519992 146.586666,67.6133344 146.64,67.4 C147.866673,62.9733112 149.613322,58.1466928 151.88,52.92 C154.146678,47.6933072 156.066659,43.7600132 157.64,41.12 C159.213341,38.4799868 160.453329,36.6800048 161.36,35.72 C163.173342,33.7999904 164.959991,32.84 166.72,32.84 C167.946673,32.84 168.773331,33.7199912 169.2,35.48 C169.253334,35.8000016 169.28,36.1999976 169.28,36.68 C169.28,38.4933424 168.640006,40.7866528 167.36,43.56 C162.77331,53.7467176 157.306698,61.7466376 150.96,67.56 Z M151.6,65 C154.320014,62.2266528 157.01332,58.7333544 159.68,54.52 C162.34668,50.3066456 164.30666,46.7200148 165.56,43.76 C166.81334,40.7999852 167.44,38.786672 167.44,37.72 C167.44,36.653328 167.253335,36.12 166.88,36.12 C166.346664,36.12 165.333341,37.1733228 163.84,39.28 C162.346659,41.3866772 160.333346,45.173306 157.8,50.64 C155.266654,56.106694 153.200008,60.8933128 151.6,65 Z M174.48,51.88 C173.73333,52.5200032 172.906671,52.84 172,52.84 C171.093329,52.84 170.373336,52.5200032 169.84,51.88 C169.306664,51.2399968 169.093333,50.4666712 169.2,49.56 C169.360001,48.6533288 169.81333,47.8800032 170.56,47.24 C171.30667,46.5999968 172.133329,46.28 173.04,46.28 C173.946671,46.28 174.679997,46.5999968 175.24,47.24 C175.800003,47.8800032 176.000001,48.6533288 175.84,49.56 C175.679999,50.4666712 175.22667,51.2399968 174.48,51.88 Z M166.64,81.24 C167.653338,81.24 168.719994,80.7333384 169.84,79.72 C171.813343,77.7466568 174.319985,73.7200304 177.36,67.64 C177.733335,66.839996 178.106665,66.5999984 178.48,66.92 C178.586667,67.0266672 178.64,67.1999988 178.64,67.44 C178.64,67.6800012 178.426669,68.266662 178,69.2 C177.573331,70.133338 177.186668,70.9733296 176.84,71.72 C176.493332,72.4666704 175.826672,73.6799916 174.84,75.36 C173.853328,77.0400084 172.960004,78.3333288 172.16,79.24 C169.973322,81.7466792 167.906676,83 165.96,83 C164.013324,83 162.613338,82.4133392 161.76,81.24 C160.906662,80.0666608 160.48,78.7600072 160.48,77.32 C160.48,75.8799928 160.826663,74.3066752 161.52,72.6 L166.64,59.56 C166.746667,59.2399984 166.8,58.813336 166.8,58.28 C166.8,57.746664 166.48,57.0533376 165.84,56.2 L170.24,56.12 C171.466673,56.12 172.186666,56.3466644 172.4,56.8 C172.613334,57.2533356 172.453336,57.9599952 171.92,58.92 L165.52,73.88 C164.613329,75.8533432 164.16,77.5333264 164.16,78.92 C164.16,80.4666744 164.986658,81.24 166.64,81.24 Z M201.76,61.32 C200.799995,62.2800048 199.440009,64.4533164 197.68,67.84 C195.919991,71.2266836 194.866668,73.7599916 194.52,75.44 C194.173332,77.1200084 194,78.4799948 194,79.52 C194,80.5600052 194.399996,81.08 195.2,81.08 C196.213338,81.08 197.466659,80.146676 198.96,78.28 C201.146678,75.5599864 203.306656,72.0133552 205.44,67.64 C205.653334,67.1599976 205.893332,66.8933336 206.16,66.84 C206.586669,66.6799992 206.8,66.8399976 206.8,67.32 C206.8,67.586668 206.72,67.9066648 206.56,68.28 C201.653309,78.2000496 197.520017,83.16 194.16,83.16 C192.613326,83.16 191.360005,82.4133408 190.4,80.92 C189.919998,80.119996 189.68,79.05334 189.68,77.72 C189.68,76.38666 189.946664,74.7600096 190.48,72.84 C186.213312,79.7200344 182.533349,83.16 179.44,83.16 C178.586662,83.16 177.813337,82.893336 177.12,82.36 C175.519992,81.2399944 174.72,79.3200136 174.72,76.6 C174.72,71.3733072 176.986644,66.0666936 181.52,60.68 C184.080013,57.6933184 187.226648,55.7466712 190.96,54.84 C191.973338,54.573332 192.933329,54.44 193.84,54.44 C196.293346,54.44 198.373325,55.2933248 200.08,57 C200.613336,57.5866696 200.773334,58.146664 200.56,58.68 C200.346666,59.213336 199.893337,59.4266672 199.2,59.32 C198.61333,57.3999904 197.333343,56.44 195.36,56.44 C193.066655,56.44 190.240017,58.2533152 186.88,61.88 C184.95999,64.013344 183.173342,66.5199856 181.52,69.4 C179.43999,72.866684 178.4,75.6399896 178.4,77.72 C178.4,79.8000104 179.06666,80.84 180.4,80.84 C183.600016,80.84 187.786641,75.9333824 192.96,66.12 C193.973338,64.1466568 194.826663,62.8000036 195.52,62.08 C196.213337,61.3599964 197.093328,61 198.16,61 C198.373334,61 198.919996,61.0799992 199.8,61.24 C200.680004,61.4000008 201.333331,61.4266672 201.76,61.32 Z M248.4,51.16 L253.76,51 C256.000011,51 257.49333,51.4799952 258.24,52.44 C258.613335,52.8666688 258.8,53.2933312 258.8,53.72 C258.8,54.1466688 258.666668,54.5199984 258.4,54.84 C257.759997,55.640004 256.560009,56.04 254.8,56.04 C251.759985,56.04 249.066678,54.8666784 246.72,52.52 C240.746637,53.4266712 236.213349,56.5999728 233.12,62.04 C231.146657,65.5600176 230.16,68.9999832 230.16,72.36 C230.16,74.226676 230.45333,76.0666576 231.04,77.88 C232.800009,83.0000256 236.613304,85.56 242.48,85.56 C247.706693,85.56 252.239981,83.8000176 256.08,80.28 C259.920019,76.7599824 261.84,73.266684 261.84,69.8 C261.84,68.1466584 261.13334,66.7733388 259.72,65.68 C258.30666,64.5866612 256.813341,63.9466676 255.24,63.76 C253.666659,63.5733324 252.333339,63.48 251.24,63.48 C250.146661,63.48 248.733342,63.5999988 247,63.84 C245.266658,64.0800012 243.546675,64.7866608 241.84,65.96 C239.813323,67.3466736 238.8,69.1866552 238.8,71.48 C238.8,73.7733448 240.586649,75.853324 244.16,77.72 C244.693336,78.0400016 244.92,78.4533308 244.84,78.96 C244.76,79.4666692 244.533335,79.6133344 244.16,79.4 C240.799983,77.5866576 238.426674,75.5333448 237.04,73.24 C236.079995,71.7466592 235.6,70.4933384 235.6,69.48 C235.6,68.4666616 235.733332,67.6400032 236,67 C236.640003,65.133324 238.239987,63.5600064 240.8,62.28 C243.360013,60.9999936 246.613314,60.36 250.56,60.36 L264.72,60.36 C267.493347,60.36 270.906646,59.426676 274.96,57.56 C276.933343,56.6533288 278.373329,55.5866728 279.28,54.36 C279.706669,53.7199968 279.92,53.0400036 279.92,52.32 C279.92,51.5999964 279.760002,50.973336 279.44,50.44 C279.119998,49.906664 278.986666,49.5333344 279.04,49.32 C279.093334,49.1066656 279.239999,49 279.48,49 C279.720001,49 279.919999,49.133332 280.08,49.4 C280.82667,50.6800064 281.2,51.8933276 281.2,53.04 C281.2,54.1866724 280.853337,55.2399952 280.16,56.2 C278.82666,58.2266768 276.560016,59.8533272 273.36,61.08 C270.159984,62.3066728 266.85335,62.92 263.44,62.92 L263.04,62.92 C265.066677,64.5733416 266.08,66.6799872 266.08,69.24 C266.08,72.8133512 264.000021,76.4933144 259.84,80.28 C257.866657,82.146676 255.333349,83.6666608 252.24,84.84 C249.146651,86.0133392 245.89335,86.6 242.48,86.6 C234.213292,86.6 228.37335,84.200024 224.96,79.4 C223.253325,76.999988 222.4,74.6800112 222.4,72.44 C222.4,70.1999888 222.746663,68.1200096 223.44,66.2 C225.306676,61.133308 229.066638,57.2133472 234.72,54.44 C237.97335,52.839992 241.626646,51.8266688 245.68,51.4 C244.186659,49.3199896 243.453333,46.7066824 243.48,43.56 C243.506667,40.4133176 244.879986,37.4533472 247.6,34.68 C250.320014,31.9066528 253.453316,29.8933396 257,28.64 C260.546684,27.3866604 263.999983,26.76 267.36,26.76 C270.133347,26.76 272.493324,27.3199944 274.44,28.44 C276.386676,29.5600056 277.36,31.3466544 277.36,33.8 C277.36,35.3466744 276.880005,36.719994 275.92,37.92 C274.959995,39.120006 273.880006,39.72 272.68,39.72 C271.479994,39.72 270.520004,39.3600036 269.8,38.64 C269.079996,37.9199964 268.72,37.026672 268.72,35.96 C268.72,34.893328 269.079996,34.0133368 269.8,33.32 C270.520004,32.6266632 271.359995,32.28 272.32,32.28 C272.960003,32.28 273.57333,32.4266652 274.16,32.72 C274.74667,33.0133348 275.093333,33.3466648 275.2,33.72 C275.253334,33.3999984 275.28,33.0800016 275.28,32.76 C275.28,31.5866608 274.800005,30.6800032 273.84,30.04 C272.826662,29.2933296 271.306677,28.92 269.28,28.92 C267.253323,28.92 264.880014,29.4666612 262.16,30.56 C259.439986,31.6533388 256.880012,33.2399896 254.48,35.32 C252.079988,37.4000104 250.186674,39.9599848 248.8,43 C248.05333,44.7066752 247.68,46.22666 247.68,47.56 C247.68,48.89334 247.919998,50.093328 248.4,51.16 Z M257.44,53.64 C257.44,52.6799952 255.466686,52.2 251.52,52.2 C250.719996,52.2 249.893338,52.2266664 249.04,52.28 C250.320006,53.880008 252.039989,54.68 254.2,54.68 C256.360011,54.68 257.44,54.3333368 257.44,53.64 Z M362.88,28.68 C362.88,26.813324 362.026675,25.0533416 360.32,23.4 C357.866654,21.0533216 354.480022,19.88 350.16,19.88 C346.373314,19.88 342.18669,20.7066584 337.6,22.36 C335.199988,23.2133376 333.120009,24.3866592 331.36,25.88 C328.639986,28.2266784 327.28,30.5733216 327.28,32.92 C327.28,36.0666824 329.27998,38.8933208 333.28,41.4 C334.773341,42.3066712 337.773311,43.7866564 342.28,45.84 C346.786689,47.8933436 350.07999,49.5599936 352.16,50.84 C355.306682,52.7600096 357.479994,54.8133224 358.68,57 C359.880006,59.1866776 360.48,61.213324 360.48,63.08 C360.48,65.74668 359.600009,68.4666528 357.84,71.24 C354.746651,76.2000248 350.213363,80.4666488 344.24,84.04 C337.359966,88.2000208 329.066715,90.28 319.36,90.28 C310.02662,90.28 302.613361,87.9066904 297.12,83.16 C292.853312,79.5333152 290.72,74.8666952 290.72,69.16 C290.72,65.5333152 292.039987,61.5333552 294.68,57.16 C297.320013,52.7866448 300.559981,49.6933424 304.4,47.88 C305.200004,47.5599984 305.799998,47.4533328 306.2,47.56 C306.600002,47.6666672 306.266672,48.1733288 305.2,49.08 C302.906655,50.8933424 301.066674,52.8933224 299.68,55.08 C296.693318,59.7733568 295.2,64.8666392 295.2,70.36 C295.2,73.9866848 296.213323,77.1599864 298.24,79.88 C301.866685,84.7333576 308.159955,87.4799968 317.12,88.12 C318.133338,88.2266672 319.63999,88.28 321.64,88.28 C323.64001,88.28 326.359983,87.9200036 329.8,87.2 C333.240017,86.4799964 336.559984,85.2933416 339.76,83.64 C346.640034,80.0133152 351.093323,75.3200288 353.12,69.56 C353.760003,67.8533248 354.08,66.200008 354.08,64.6 C354.08,60.9733152 352.45335,57.7733472 349.2,55 C347.439991,53.6133264 343.85336,51.7600116 338.44,49.44 C333.02664,47.1199884 329.386676,45.3466728 327.52,44.12 C323.413313,41.3466528 321.36,38.0666856 321.36,34.28 C321.36,30.9733168 323.199982,27.7466824 326.88,24.6 C332.160026,20.1199776 339.626618,17.88 349.28,17.88 C353.813356,17.88 357.506652,18.5599932 360.36,19.92 C363.213348,21.2800068 364.959997,23.3199864 365.6,26.04 C365.706667,26.573336 365.76,27.106664 365.76,27.64 C365.76,29.7200104 364.80001,31.5866584 362.88,33.24 C361.54666,34.306672 359.760011,35.1599968 357.52,35.8 C356.559995,36.066668 356.026667,35.9600024 355.92,35.48 C355.813333,34.7866632 356.479993,34.3600008 357.92,34.2 C360.480013,33.88 362.05333,32.6000112 362.64,30.36 C362.800001,29.7733304 362.88,29.213336 362.88,28.68 Z M378.4,51.88 C377.65333,52.5200032 376.826671,52.84 375.92,52.84 C375.013329,52.84 374.293336,52.5200032 373.76,51.88 C373.226664,51.2399968 373.013333,50.4666712 373.12,49.56 C373.280001,48.6533288 373.73333,47.8800032 374.48,47.24 C375.22667,46.5999968 376.053329,46.28 376.96,46.28 C377.866671,46.28 378.599997,46.5999968 379.16,47.24 C379.720003,47.8800032 379.920001,48.6533288 379.76,49.56 C379.599999,50.4666712 379.14667,51.2399968 378.4,51.88 Z M370.56,81.24 C371.573338,81.24 372.639994,80.7333384 373.76,79.72 C375.733343,77.7466568 378.239985,73.7200304 381.28,67.64 C381.653335,66.839996 382.026665,66.5999984 382.4,66.92 C382.506667,67.0266672 382.56,67.1999988 382.56,67.44 C382.56,67.6800012 382.346669,68.266662 381.92,69.2 C381.493331,70.133338 381.106668,70.9733296 380.76,71.72 C380.413332,72.4666704 379.746672,73.6799916 378.76,75.36 C377.773328,77.0400084 376.880004,78.3333288 376.08,79.24 C373.893322,81.7466792 371.826676,83 369.88,83 C367.933324,83 366.533338,82.4133392 365.68,81.24 C364.826662,80.0666608 364.4,78.7600072 364.4,77.32 C364.4,75.8799928 364.746663,74.3066752 365.44,72.6 L370.56,59.56 C370.666667,59.2399984 370.72,58.813336 370.72,58.28 C370.72,57.746664 370.4,57.0533376 369.76,56.2 L374.16,56.12 C375.386673,56.12 376.106666,56.3466644 376.32,56.8 C376.533334,57.2533356 376.373336,57.9599952 375.84,58.92 L369.44,73.88 C368.533329,75.8533432 368.08,77.5333264 368.08,78.92 C368.08,80.4666744 368.906658,81.24 370.56,81.24 Z M419.2,56.76 C412.693301,68.3333912 409.44,75.7999832 409.44,79.16 C409.44,80.6533408 409.946662,81.4 410.96,81.4 C412.240006,81.4 413.706658,80.4400096 415.36,78.52 C417.866679,75.4799848 420.053324,71.826688 421.92,67.56 C422.240002,66.8133296 422.559998,66.5199992 422.88,66.68 C423.200002,66.8400008 423.36,67.053332 423.36,67.32 C423.36,67.586668 423.093336,68.253328 422.56,69.32 L421.28,71.88 C420.959998,72.5200032 420.253339,73.7466576 419.16,75.56 C418.066661,77.3733424 417.133337,78.7066624 416.36,79.56 C415.586663,80.4133376 414.600006,81.2533292 413.4,82.08 C412.199994,82.9066708 410.84,83.32 409.32,83.32 C407.799992,83.32 406.506672,82.5733408 405.44,81.08 C404.959998,80.3866632 404.72,79.440006 404.72,78.24 C404.72,77.039994 404.986664,75.5866752 405.52,73.88 C406.053336,72.1733248 407.519988,69.4000192 409.92,65.56 C410.50667,64.5999952 410.8,63.8400028 410.8,63.28 C410.8,62.7199972 410.360004,62.44 409.48,62.44 C408.599996,62.44 407.013345,63.506656 404.72,65.64 C402.426655,67.773344 400.013346,70.6533152 397.48,74.28 C394.946654,77.9066848 393.440002,80.8133224 392.96,83 C392.053329,83 391.386669,82.6266704 390.96,81.88 C390.533331,81.1333296 390.32,80.493336 390.32,79.96 C390.32,77.7733224 391.786652,73.613364 394.72,67.48 C395.680005,65.4533232 396.186666,64.0800036 396.24,63.36 C396.293334,62.6399964 396.200001,62.2666668 395.96,62.24 C395.719999,62.2133332 395.386669,62.3066656 394.96,62.52 C393.999995,63.0000024 392.533343,64.173324 390.56,66.04 C386.826648,69.4533504 383.146685,74.6532984 379.52,81.64 C379.253332,82.2266696 378.920002,82.586666 378.52,82.72 C378.119998,82.853334 377.333339,82.9466664 376.16,83 C374.986661,83.0533336 374.213335,83.1866656 373.84,83.4 C374.800005,81.533324 376.479988,78.0400256 378.88,72.92 C383.200022,63.7466208 386.079993,58.4666736 387.52,57.08 C388.160003,56.4399968 389.039994,56.12 390.16,56.12 C390.373334,56.12 390.919996,56.1999992 391.8,56.36 C392.680004,56.5200008 393.333331,56.5466672 393.76,56.44 C391.786657,57.506672 388.560022,62.5199552 384.08,71.48 C386.586679,68.3866512 388.386661,66.3600048 389.48,65.4 C390.573339,64.4399952 391.386664,63.7200024 391.92,63.24 C392.453336,62.7599976 392.866665,62.386668 393.16,62.12 C393.453335,61.853332 393.879997,61.4666692 394.44,60.96 C395.000003,60.4533308 395.426665,60.0800012 395.72,59.84 C396.013335,59.5999988 396.426664,59.2666688 396.96,58.84 C397.493336,58.4133312 397.906665,58.133334 398.2,58 C398.493335,57.866666 398.893331,57.6400016 399.4,57.32 C399.906669,56.9999984 400.279999,56.84 400.52,56.84 C400.760001,56.84 401.093331,56.773334 401.52,56.64 C401.946669,56.506666 402.239999,56.5466656 402.4,56.76 C403.466672,57.1866688 404,57.8533288 404,58.76 C404,59.560004 403.093342,61.6133168 401.28,64.92 C399.466658,68.2266832 398.293336,70.413328 397.76,71.48 C400.106678,68.546652 402.346656,66.1333428 404.48,64.24 C406.613344,62.3466572 409.133319,60.600008 412.04,59 C414.946681,57.399992 417.06666,56.6 418.4,56.6 C418.720002,56.6 418.986666,56.6533328 419.2,56.76 Z M446.24,61.32 C445.279995,62.2800048 443.920009,64.4533164 442.16,67.84 C440.399991,71.2266836 439.346668,73.7599916 439,75.44 C438.653332,77.1200084 438.48,78.4799948 438.48,79.52 C438.48,80.5600052 438.879996,81.08 439.68,81.08 C440.693338,81.08 441.946659,80.146676 443.44,78.28 C445.626678,75.5599864 447.786656,72.0133552 449.92,67.64 C450.133334,67.1599976 450.386665,66.8800004 450.68,66.8 C450.973335,66.7199996 451.16,66.813332 451.24,67.08 C451.32,67.346668 451.253334,67.746664 451.04,68.28 C446.133309,78.2000496 442.000017,83.16 438.64,83.16 C437.093326,83.16 435.840005,82.4133408 434.88,80.92 C434.399998,80.119996 434.16,79.05334 434.16,77.72 C434.16,76.38666 434.426664,74.7600096 434.96,72.84 C430.693312,79.7200344 427.013349,83.16 423.92,83.16 C423.066662,83.16 422.293337,82.893336 421.6,82.36 C419.999992,81.2399944 419.2,79.3200136 419.2,76.6 C419.2,71.3733072 421.466644,66.0666936 426,60.68 C428.560013,57.6933184 431.706648,55.7466712 435.44,54.84 C436.453338,54.573332 437.413329,54.44 438.32,54.44 C440.773346,54.44 442.853325,55.2933248 444.56,57 C445.093336,57.5866696 445.253334,58.146664 445.04,58.68 C444.826666,59.213336 444.373337,59.4266672 443.68,59.32 C443.09333,57.3999904 441.813343,56.44 439.84,56.44 C437.546655,56.44 434.720017,58.2533152 431.36,61.88 C429.43999,64.013344 427.653342,66.5199856 426,69.4 C423.91999,72.866684 422.88,75.6399896 422.88,77.72 C422.88,79.8000104 423.54666,80.84 424.88,80.84 C428.080016,80.84 432.266641,75.9333824 437.44,66.12 C438.453338,64.1466568 439.306663,62.8000036 440,62.08 C440.693337,61.3599964 441.573328,61 442.64,61 C442.853334,61 443.399996,61.0799992 444.28,61.24 C445.160004,61.4000008 445.813331,61.4266672 446.24,61.32 Z M445.68,47.72 C444.506661,47.72 442.800011,47.2400048 440.56,46.28 C438.053321,45.1599944 436.13334,44.6 434.8,44.6 C433.46666,44.6 432.320005,45.4799912 431.36,47.24 C431.253333,47.6133352 430.773338,47.666668 429.92,47.4 C429.653332,47.2933328 429.52,47.1866672 429.52,47.08 C431.760011,43.07998 434.21332,41.08 436.88,41.08 C438.106673,41.08 439.839989,41.546662 442.08,42.48 C444.320011,43.413338 445.746664,43.8933332 446.36,43.92 C446.973336,43.9466668 447.386666,43.96 447.6,43.96 C449.253342,43.96 450.533329,43.026676 451.44,41.16 C451.493334,40.9999992 451.653332,40.92 451.92,40.92 C452.613337,40.92 453.013333,41.053332 453.12,41.32 C451.03999,45.586688 448.560014,47.72 445.68,47.72 Z M464.48,55 C468.373353,55 470.32,57.4533088 470.32,62.36 C470.32,64.6000112 469.733339,66.9999872 468.56,69.56 C467.066659,73.026684 464.826682,76.1733192 461.84,79 C462.533337,80.33334 463.786658,81 465.6,81 C467.040007,81 468.399994,80.2800072 469.68,78.84 C471.280008,77.1866584 472.426663,75.7333396 473.12,74.48 C473.813337,73.2266604 474.319998,72.3066696 474.64,71.72 C474.960002,71.1333304 475.373331,70.2933388 475.88,69.2 C476.386669,68.1066612 476.693333,67.4400012 476.8,67.2 C476.906667,66.9599988 477.093332,66.84 477.36,66.84 C477.893336,66.7866664 478.16,66.9733312 478.16,67.4 C478.16,67.5600008 478.106667,67.7466656 478,67.96 L477.52,69.08 C477.199998,69.8266704 476.960001,70.3599984 476.8,70.68 C476.639999,71 476.360002,71.5733292 475.96,72.4 C475.559998,73.2266708 475.213335,73.8799976 474.92,74.36 C474.626665,74.8400024 474.226669,75.479996 473.72,76.28 C473.213331,77.080004 472.760002,77.7199976 472.36,78.2 C471.959998,78.6800024 471.46667,79.2133304 470.88,79.8 C470.29333,80.3866696 469.733336,80.8399984 469.2,81.16 C467.86666,81.960004 466.613339,82.36 465.44,82.36 C463.253322,82.36 461.546673,81.6666736 460.32,80.28 C457.866654,82.0933424 455.60001,83 453.52,83 C449.626647,83 447.68,80.5466912 447.68,75.64 C447.68,73.3999888 448.266661,71.0000128 449.44,68.44 C451.040008,64.706648 453.293319,61.5333464 456.2,58.92 C459.106681,56.3066536 461.866654,55 464.48,55 Z M465.36,57.48 C463.919993,57.48 462.213343,58.4399904 460.24,60.36 C458.266657,62.2800096 456.506674,64.8933168 454.96,68.2 C453.093324,72.0400192 452.16,75.1866544 452.16,77.64 C452.16,80.0933456 453.093324,81.32 454.96,81.32 C456.29334,81.32 457.786658,80.6000072 459.44,79.16 C458.586662,77.9333272 458.16,76.6266736 458.16,75.24 C458.266667,72.9466552 459.199991,71.8 460.96,71.8 C461.653337,71.8 462.226664,72.0399976 462.68,72.52 C463.133336,73.0000024 463.36,73.439998 463.36,73.84 C463.36,74.240002 463.306667,74.6533312 463.2,75.08 C464.106671,73.74666 465.146661,71.8533456 466.32,69.4 C467.65334,66.6799864 468.32,64.0133464 468.32,61.4 C468.32,58.7866536 467.333343,57.48 465.36,57.48 Z M570.08,26.6 C575.733362,29.9600168 578.56,34.0133096 578.56,38.76 C578.56,42.493352 576.480021,46.493312 572.32,50.76 C569.919988,53.2666792 567.080016,55.4266576 563.8,57.24 C560.519984,59.0533424 557.280016,60.359996 554.08,61.16 C548.533306,62.49334 543.520022,63.16 539.04,63.16 C538.079995,63.16 537.120005,63.1333336 536.16,63.08 C532.266647,68.7866952 528.266687,73.63998 524.16,77.64 C518.133303,83.2933616 511.49337,86.12 504.24,86.12 C497.306632,86.12 493.040008,84.2266856 491.44,80.44 C491.066665,79.5333288 490.88,78.480006 490.88,77.28 C490.88,76.079994 491.493327,74.7866736 492.72,73.4 C494.64001,71.2133224 497.333316,70.12 500.8,70.12 C503.040011,70.12 505.386654,70.519996 507.84,71.32 C508.746671,71.6400016 509.066668,71.9866648 508.8,72.36 C508.586666,72.5733344 507.893339,72.4666688 506.72,72.04 C505.546661,71.6133312 504.093342,71.4 502.36,71.4 C500.626658,71.4 499.106673,72.0533268 497.8,73.36 C496.493327,74.6666732 495.84,76.0666592 495.84,77.56 C495.84,78.1466696 495.946666,78.7333304 496.16,79.32 C497.013338,82.2000144 499.43998,83.64 503.44,83.64 C509.413363,83.64 515.279971,80.8666944 521.04,75.32 C525.146687,71.31998 529.759974,64.120052 534.88,53.72 C536.853343,49.8266472 539.306652,45.4933572 542.24,40.72 C545.173348,35.9466428 548.159985,31.8533504 551.2,28.44 L552.64,27 C553.760006,25.7199936 554.69333,24.7066704 555.44,23.96 C551.599981,23.426664 547.493355,23.16 543.12,23.16 C538.746645,23.16 534.613353,23.5199964 530.72,24.24 C526.826647,24.9600036 523.440014,25.8133284 520.56,26.8 C517.679986,27.7866716 514.760015,29.0666588 511.8,30.64 C508.839985,32.2133412 506.346677,34.199988 504.32,36.6 C501.65332,39.6400152 500.32,42.8133168 500.32,46.12 C500.32,48.1466768 501.039993,50.0399912 502.48,51.8 C504.026674,53.666676 506.013321,54.6 508.44,54.6 C510.866679,54.6 513.213322,53.666676 515.48,51.8 C517.746678,49.933324 519.359995,47.6400136 520.32,44.92 C520.373334,44.5466648 520.493332,44.293334 520.68,44.16 C520.866668,44.026666 521.039999,44.0399992 521.2,44.2 C521.360001,44.3600008 521.44,44.6266648 521.44,45 C521.386666,48.466684 520.040013,51.19999 517.4,53.2 C514.759987,55.20001 511.840016,56.2 508.64,56.2 C505.013315,56.2 502.053345,55.133344 499.76,53 C497.466655,50.866656 496.32,48.1200168 496.32,44.76 C496.32,41.6666512 497.146658,38.8800124 498.8,36.4 C500.453342,33.9199876 502.426655,31.9066744 504.72,30.36 C507.013345,28.8133256 509.653318,27.4266728 512.64,26.2 C517.706692,24.1733232 523.026639,22.7466708 528.6,21.92 C534.173361,21.0933292 539.373309,20.68 544.2,20.68 C549.026691,20.68 553.493313,21.1066624 557.6,21.96 C559.52001,20.4666592 561.199993,19.453336 562.64,18.92 C564.080007,18.386664 564.893332,18.12 565.08,18.12 C565.266668,18.12 565.386666,18.1466664 565.44,18.2 C565.760002,18.2 565.826668,18.3733316 565.64,18.72 C565.453332,19.0666684 564.840005,19.5866632 563.8,20.28 C562.759995,20.9733368 561.760005,21.7999952 560.8,22.76 C564.21335,23.6666712 567.306653,24.9466584 570.08,26.6 Z M538.4,61.4 C542.293353,61.4 546.519977,60.7200068 551.08,59.36 C555.640023,57.9999932 559.679982,56.0133464 563.2,53.4 C570.026701,48.2266408 573.44,42.8933608 573.44,37.4 C573.44,31.1599688 568.720047,26.9200112 559.28,24.68 C556.293318,28.8400208 552.42669,35.1599576 547.68,43.64 C542.93331,52.1200424 539.466678,58.0399832 537.28,61.4 C537.653335,61.4 538.026665,61.4 538.4,61.4 Z M567.84,70.68 C567.09333,72.4933424 566.72,74.5199888 566.72,76.76 C566.72,78.2533408 567.05333,79.4399956 567.72,80.32 C568.38667,81.2000044 569.333327,81.64 570.56,81.64 C575.413358,81.64 579.813314,77.0800456 583.76,67.96 C584.133335,67.1066624 584.586664,66.7333328 585.12,66.84 C585.333334,66.8933336 585.44,67.0266656 585.44,67.24 C585.44,67.4533344 584.840006,68.8533204 583.64,71.44 C582.439994,74.0266796 581.226673,76.119992 580,77.72 C577.279986,81.453352 573.92002,83.32 569.92,83.32 C567.786656,83.32 565.973341,82.6266736 564.48,81.24 C562.986659,79.8533264 562.24,77.960012 562.24,75.56 C562.24,73.159988 562.813328,70.6133468 563.96,67.92 C565.106672,65.2266532 566.666657,62.7200116 568.64,60.4 C570.613343,58.0799884 572.879987,56.386672 575.44,55.32 C576.666673,54.786664 577.839994,54.52 578.96,54.52 C580.080006,54.52 581.119995,54.8399968 582.08,55.48 C582.986671,56.2266704 583.44,57.0533288 583.44,57.96 C583.44,61.160016 581.520019,64.226652 577.68,67.16 C576.506661,68.0666712 574.853344,68.8799964 572.72,69.6 C570.586656,70.3200036 568.960006,70.68 567.84,70.68 Z M581.28,57.88 C581.28,56.813328 580.853338,56.28 580,56.28 C578.506659,56.28 576.240015,58.1199816 573.2,61.8 C571.386658,64.0400112 569.786674,66.5466528 568.4,69.32 C569.306671,69.32 570.626658,69.0000032 572.36,68.36 C574.093342,67.7199968 575.599994,66.866672 576.88,65.8 C579.813348,63.2933208 581.28,60.6533472 581.28,57.88 Z M600.88,78.36 C600.88,80.0666752 601.573326,80.92 602.96,80.92 C605.466679,80.92 608.799979,76.7333752 612.96,68.36 C613.120001,68.0399984 613.266666,67.7200016 613.4,67.4 C613.533334,67.0799984 613.746665,66.8666672 614.04,66.76 C614.333335,66.6533328 614.533333,66.7199988 614.64,66.96 C614.746667,67.2000012 614.693334,67.586664 614.48,68.12 C610.213312,78.0400496 605.893355,83 601.52,83 C600.079993,83 598.933338,82.3600064 598.08,81.08 C597.226662,79.7999936 596.8,78.5333396 596.8,77.28 C596.8,76.0266604 596.933332,74.866672 597.2,73.8 C594.106651,78.9200256 591.440011,81.8266632 589.2,82.52 C588.559997,82.786668 587.933336,82.92 587.32,82.92 C586.706664,82.92 586.10667,82.8400008 585.52,82.68 C582.906654,81.9866632 581.6,79.906684 581.6,76.44 C581.6,74.0933216 582.199994,71.4933476 583.4,68.64 C584.6,65.7866524 586.293322,63.0533464 588.48,60.44 C590.666678,57.8266536 593.306651,56.0666712 596.4,55.16 C597.520006,54.7866648 598.839992,54.6 600.36,54.6 C601.880008,54.6 603.573324,55.0799952 605.44,56.04 C609.066685,49.2132992 612.159987,42.8933624 614.72,37.08 C615.46667,35.3199912 616.199996,34.1866692 616.92,33.68 C617.640004,33.1733308 618.306664,32.92 618.92,32.92 L620.04,32.92 C620.173334,32.92 620.679996,32.986666 621.56,33.12 C622.440004,33.253334 623.119998,33.2933336 623.6,33.24 C622.373327,34.3600056 619.120026,39.7999512 613.84,49.56 C607.119966,62.0400624 603.066674,70.3599792 601.68,74.52 C601.146664,76.0666744 600.88,77.3466616 600.88,78.36 Z M604.8,57.32 C604.106663,56.6266632 603.13334,56.28 601.88,56.28 C600.62666,56.28 598.880011,57.213324 596.64,59.08 C593.066649,62.0666816 590.106678,65.7466448 587.76,70.12 C586.213326,73.0000144 585.44,75.373324 585.44,77.24 C585.44,78.0933376 585.613332,78.8666632 585.96,79.56 C586.306668,80.2533368 586.85333,80.6 587.6,80.6 C589.413342,80.6 591.65332,78.733352 594.32,75 C596.98668,71.266648 600.479978,65.3733736 604.8,57.32 Z M624.16,50.92 C624.16,53.320012 622.640015,55.586656 619.6,57.72 C620.666672,57.7733336 622.093324,57.8 623.88,57.8 C625.666676,57.8 627.919986,57.666668 630.64,57.4 C630.746667,57.5600008 630.8,57.9866632 630.8,58.68 C630.8,59.3733368 630.480003,60.3999932 629.84,61.76 C629.199997,63.1200068 628.626669,64.2933284 628.12,65.28 C627.613331,66.2666716 627.133336,67.1999956 626.68,68.08 C626.226664,68.9600044 625.720003,70.0399936 625.16,71.32 C624.599997,72.6000064 624.133335,73.773328 623.76,74.84 C622.42666,78.8933536 622.64,80.92 624.4,80.92 C626.640011,80.92 629.946645,76.4667112 634.32,67.56 C634.693335,66.8666632 634.999999,66.5999992 635.24,66.76 C635.480001,66.9200008 635.6,67.1199988 635.6,67.36 C635.6,67.6000012 635.253337,68.4266596 634.56,69.84 C633.866663,71.2533404 633.120004,72.7066592 632.32,74.2 C631.519996,75.6933408 630.266675,77.4266568 628.56,79.4 C626.533323,81.8533456 624.586676,83.08 622.72,83.08 C620.63999,83.08 619.200004,81.8266792 618.4,79.32 C618.239999,78.8399976 618.16,78.1200048 618.16,77.16 C618.16,76.1999952 618.466664,74.920008 619.08,73.32 C619.693336,71.719992 620.66666,69.7733448 622,67.48 C623.33334,65.1866552 624.079999,63.840002 624.24,63.44 C624.400001,63.039998 624.48,62.6533352 624.48,62.28 C624.48,60.6266584 622.346688,59.7466672 618.08,59.64 L617.12,62.2 C613.759983,71.000044 610.533349,76.8933184 607.44,79.88 C606.906664,80.3600024 606.64,80.200004 606.64,79.4 C606.64,79.2399992 606.693333,79.0533344 606.8,78.84 C609.786682,74.8933136 612.373322,70.2266936 614.56,64.84 C616.746678,59.4533064 618.266662,54.3333576 619.12,49.48 C619.440002,47.8266584 620.186661,47 621.36,47 C622.533339,47 623.386664,47.7466592 623.92,49.24 C624.080001,49.7200024 624.16,50.2799968 624.16,50.92 Z M648.72,55 C652.613353,55 654.56,57.4533088 654.56,62.36 C654.56,64.6000112 653.973339,66.9999872 652.8,69.56 C651.306659,73.026684 649.066682,76.1733192 646.08,79 C646.773337,80.33334 648.026658,81 649.84,81 C651.280007,81 652.639994,80.2800072 653.92,78.84 C655.520008,77.1866584 656.666663,75.7333396 657.36,74.48 C658.053337,73.2266604 658.559998,72.3066696 658.88,71.72 C659.200002,71.1333304 659.613331,70.2933388 660.12,69.2 C660.626669,68.1066612 660.933333,67.4400012 661.04,67.2 C661.146667,66.9599988 661.333332,66.84 661.6,66.84 C662.133336,66.7866664 662.4,66.9733312 662.4,67.4 C662.4,67.5600008 662.346667,67.7466656 662.24,67.96 L661.76,69.08 C661.439998,69.8266704 661.200001,70.3599984 661.04,70.68 C660.879999,71 660.600002,71.5733292 660.2,72.4 C659.799998,73.2266708 659.453335,73.8799976 659.16,74.36 C658.866665,74.8400024 658.466669,75.479996 657.96,76.28 C657.453331,77.080004 657.000002,77.7199976 656.6,78.2 C656.199998,78.6800024 655.70667,79.2133304 655.12,79.8 C654.53333,80.3866696 653.973336,80.8399984 653.44,81.16 C652.10666,81.960004 650.853339,82.36 649.68,82.36 C647.493322,82.36 645.786673,81.6666736 644.56,80.28 C642.106654,82.0933424 639.84001,83 637.76,83 C633.866647,83 631.92,80.5466912 631.92,75.64 C631.92,73.3999888 632.506661,71.0000128 633.68,68.44 C635.280008,64.706648 637.533319,61.5333464 640.44,58.92 C643.346681,56.3066536 646.106654,55 648.72,55 Z M649.6,57.48 C648.159993,57.48 646.453343,58.4399904 644.48,60.36 C642.506657,62.2800096 640.746674,64.8933168 639.2,68.2 C637.333324,72.0400192 636.4,75.1866544 636.4,77.64 C636.4,80.0933456 637.333324,81.32 639.2,81.32 C640.53334,81.32 642.026658,80.6000072 643.68,79.16 C642.826662,77.9333272 642.4,76.6266736 642.4,75.24 C642.506667,72.9466552 643.439991,71.8 645.2,71.8 C645.893337,71.8 646.466664,72.0399976 646.92,72.52 C647.373336,73.0000024 647.6,73.439998 647.6,73.84 C647.6,74.240002 647.546667,74.6533312 647.44,75.08 C648.346671,73.74666 649.386661,71.8533456 650.56,69.4 C651.89334,66.6799864 652.56,64.0133464 652.56,61.4 C652.56,58.7866536 651.573343,57.48 649.6,57.48 Z" id="Aurélia&amp;SimãoPedro" fill="#FFFFFF" fill-rule="nonzero"></path>
    </g>
</svg>